<svg xmlns="http://www.w3.org/2000/svg" width="23" height="14" viewBox="0 0 23 14" fill="none">
<g clip-path="url(#clip0_266_2354)">
<path d="M9.88954 3.75223L10.9522 4.4196C11.1344 4.39469 11.319 4.37473 11.51 4.37473C13.2554 4.37473 14.6741 5.46143 14.7881 6.82856L15.8475 7.49389C15.8766 7.33155 15.91 7.17 15.91 7.00124V6.99973C15.91 5.06784 13.9392 3.49973 11.51 3.49973C10.9365 3.49973 10.3921 3.5933 9.88954 3.75223ZM11.51 12.2497C7.84852 12.2497 4.48668 10.2815 2.74352 7.12688C2.72995 7.09735 2.71176 7.02541 2.70987 7.00545C2.71176 6.97411 2.73002 6.90201 2.73634 6.88615C3.17775 6.08703 3.72273 5.36545 4.34812 4.73138L3.48692 4.1906C2.79729 4.88849 2.20353 5.67553 1.72926 6.53415C1.6637 6.65526 1.61001 6.86414 1.61001 6.99973C1.61001 7.13582 1.6637 7.34415 1.72926 7.46526C3.5941 10.8408 7.28402 13.1247 11.51 13.1247C13.1645 13.1247 14.7346 12.7703 16.1475 12.1415L15.194 11.5427C14.039 11.9946 12.7956 12.2497 11.51 12.2497ZM11.51 1.74973C15.1715 1.74973 18.5334 3.71791 20.2765 6.87253C20.2901 6.90206 20.3083 6.97406 20.3101 6.99402C20.3083 7.02533 20.29 7.09746 20.2837 7.11327C19.8423 7.91228 19.2976 8.6338 18.6722 9.26782L19.5333 9.80862C20.2229 9.11075 20.8165 8.32377 21.2908 7.46526C21.3563 7.34415 21.41 7.13528 21.41 6.99973C21.41 6.86364 21.3563 6.65526 21.2908 6.53415C19.4259 3.15862 15.736 0.874733 11.51 0.874733C9.85571 0.874733 8.28574 1.22908 6.87286 1.85771L7.82659 2.45668C8.98135 2.0048 10.2246 1.74973 11.51 1.74973ZM11.512 10.4997C12.0852 10.4997 12.6292 10.4062 13.1315 10.2474L12.0685 9.57981C11.8861 9.60477 11.7013 9.62473 11.51 9.62473C9.76379 9.62473 8.34455 8.53703 8.2317 7.17025L7.17271 6.50525C7.14346 6.66819 7.11001 6.83039 7.11001 6.99973C7.11001 8.93162 9.08086 10.4997 11.51 10.4997H11.512ZM22.3006 13.2187L1.40046 0.0932484C1.16307 -0.0558571 0.81715 -0.0229626 0.628088 0.165463C0.440125 0.355147 0.480928 0.630334 0.719422 0.780315L21.6196 13.9058C21.7205 13.969 21.8408 13.9997 21.9601 13.9997C22.1223 13.9997 22.2834 13.9425 22.3919 13.8335C22.5799 13.6438 22.5391 13.3687 22.3006 13.2187Z" fill="#ACACAC"/>
</g>
<defs>
<clipPath id="clip0_266_2354">
<rect width="22" height="14" fill="white" transform="translate(0.51001)"/>
</clipPath>
</defs>
</svg>