<svg xmlns="http://www.w3.org/2000/svg" width="32" height="32" viewBox="0 0 32 32" fill="none">
<path d="M28.7996 28.7997V19.4237C28.7996 14.8157 27.8076 11.2957 22.4316 11.2957C19.8396 11.2957 18.1116 12.7037 17.4076 14.0477H17.3436V11.7117H12.2556V28.7997H17.5676V20.3197C17.5676 18.0797 17.9836 15.9357 20.7356 15.9357C23.4556 15.9357 23.4876 18.4637 23.4876 20.4477V28.7677H28.7996V28.7997Z" fill="#757575"/>
<path d="M3.61597 11.712H8.92797V28.8H3.61597V11.712Z" fill="#757575"/>
<path d="M6.27195 3.20001C4.57595 3.20001 3.19995 4.57601 3.19995 6.27201C3.19995 7.96801 4.57595 9.37601 6.27195 9.37601C7.96795 9.37601 9.34395 7.96801 9.34395 6.27201C9.34395 4.57601 7.96795 3.20001 6.27195 3.20001Z" fill="#757575"/>
</svg>