<svg width="32" height="32" viewBox="0 0 32 32" fill="none" xmlns="http://www.w3.org/2000/svg">
<path d="M13.2846 25.6372C13.9511 25.4962 18.0127 25.4962 18.6792 25.6372C19.2491 25.7688 19.8653 26.0764 19.8653 26.7478C19.8321 27.387 19.4571 27.9537 18.939 28.3136C18.2671 28.8373 17.4787 29.169 16.6544 29.2885C16.1986 29.3476 15.7507 29.349 15.3107 29.2885C14.4852 29.169 13.6967 28.8373 13.0262 28.3123C12.5067 27.9537 12.1317 27.387 12.0986 26.7478C12.0986 26.0764 12.7148 25.7688 13.2846 25.6372ZM16.0606 2.66669C18.8342 2.66669 21.6673 3.98271 23.3503 6.16624C24.4422 7.57224 24.9431 8.97689 24.9431 11.1604V11.7285C24.9431 13.403 25.3857 14.3901 26.3597 15.5275C27.0978 16.3654 27.3337 17.4411 27.3337 18.608C27.3337 19.7737 26.9507 20.8802 26.1834 21.7786C25.179 22.8556 23.7624 23.5431 22.3166 23.6627C20.2216 23.8413 18.1252 23.9917 16.001 23.9917C13.8755 23.9917 11.7804 23.9017 9.68533 23.6627C8.23827 23.5431 6.82168 22.8556 5.81855 21.7786C5.05129 20.8802 4.66699 19.7737 4.66699 18.608C4.66699 17.4411 4.90419 16.3654 5.64098 15.5275C6.64544 14.3901 7.05889 13.403 7.05889 11.7285V11.1604C7.05889 8.91781 7.6181 7.45138 8.76965 6.01584C10.4817 3.92228 13.2261 2.66669 15.9414 2.66669H16.0606Z" fill="#544F4E"/>
<ellipse cx="22.6663" cy="5.33333" rx="5.33333" ry="5.33333" fill="#FF113A"/>
</svg>
