<svg width="24" height="24" viewBox="0 0 24 24" fill="none" xmlns="http://www.w3.org/2000/svg">
<path fill-rule="evenodd" clip-rule="evenodd" d="M15.909 2C19.053 2 21.165 4.153 21.165 7.357V16.553C21.165 19.785 19.118 21.887 15.95 21.907L8.257 21.91C5.113 21.91 3 19.757 3 16.553V7.357C3 4.124 5.047 2.023 8.215 2.004L15.908 2H15.909ZM15.909 3.5L8.22 3.504C5.892 3.518 4.5 4.958 4.5 7.357V16.553C4.5 18.968 5.905 20.41 8.256 20.41L15.945 20.407C18.273 20.393 19.665 18.951 19.665 16.553V7.357C19.665 4.942 18.261 3.5 15.909 3.5ZM15.7161 15.4737C16.1301 15.4737 16.4661 15.8097 16.4661 16.2237C16.4661 16.6377 16.1301 16.9737 15.7161 16.9737H8.4961C8.0821 16.9737 7.7461 16.6377 7.7461 16.2237C7.7461 15.8097 8.0821 15.4737 8.4961 15.4737H15.7161ZM15.7161 11.2872C16.1301 11.2872 16.4661 11.6232 16.4661 12.0372C16.4661 12.4512 16.1301 12.7872 15.7161 12.7872H8.4961C8.0821 12.7872 7.7461 12.4512 7.7461 12.0372C7.7461 11.6232 8.0821 11.2872 8.4961 11.2872H15.7161ZM11.2508 7.1104C11.6648 7.1104 12.0008 7.4464 12.0008 7.8604C12.0008 8.2744 11.6648 8.6104 11.2508 8.6104H8.4958C8.0818 8.6104 7.7458 8.2744 7.7458 7.8604C7.7458 7.4464 8.0818 7.1104 8.4958 7.1104H11.2508Z" fill="#FFC800"/>
</svg>
